HIERARCHY
ROOT Hips
{
	OFFSET 0.000000 0.000000 0.000000 
	CHANNELS 6 Xposition Yposition Zposition Yrotation Zrotation Xrotation 
	JOINT Lumbar
	{
		OFFSET 0.000000 0.000000 0.000000 
		CHANNELS 3 Zrotation Xrotation Yrotation
		JOINT Neck
		{
			OFFSET 0.000000 0.445665 0.000000 
			CHANNELS 3 Zrotation Xrotation Yrotation
			End Site
			{
				OFFSET 0.000000 0.227535 0.000000 
			}
		}
		JOINT RightShoulder
		{
			OFFSET 0.019635 0.377685 0.194865 
			CHANNELS 3 Zrotation Xrotation Yrotation
			JOINT RightElbow
			{
				OFFSET 0.000000 -0.243375 0.000000 
				CHANNELS 2 Zrotation Yrotation
				JOINT RightWrist
				{
					OFFSET 0.000000 -0.264825 0.000000 
					CHANNELS 2 Zrotation Xrotation
					End Site
					{
						OFFSET 0.006600 -0.176220 0.000990 
					}
				}
			}
		}
		JOINT LeftShoulder
		{
			OFFSET 0.019635 0.377685 -0.194865 
			CHANNELS 3 Zrotation Xrotation Yrotation
			JOINT LeftElbow
			{
				OFFSET 0.000000 -0.243375 0.000000 
				CHANNELS 2 Zrotation Yrotation
				JOINT LeftWrist
				{
					OFFSET 0.000000 -0.264825 0.000000 
					CHANNELS 2 Zrotation Xrotation
					End Site
					{
						OFFSET 0.006600 -0.176220 -0.000990 
					}
				}
			}
		}
	}
	JOINT RightHip
	{
		OFFSET 0.052140 -0.069960 0.075570 
		CHANNELS 3 Zrotation Xrotation Yrotation
		JOINT RightKnee
		{
			OFFSET 0.000000 -0.402270 0.000000 
			CHANNELS 1 Zrotation
			JOINT RightAnkle
			{
				OFFSET 0.000000 -0.404085 0.000000 
				CHANNELS 3 Zrotation Xrotation Yrotation
				End Site
				{
					OFFSET 0.204105 -0.089430 0.008415 
				}
			}
		}
	}
	JOINT LeftHip
	{
		OFFSET 0.052140 -0.069960 -0.075570 
		CHANNELS 3 Zrotation Xrotation Yrotation
		JOINT LeftKnee
		{
			OFFSET 0.000000 -0.402270 0.000000 
			CHANNELS 1 Zrotation
			JOINT LeftAnkle
			{
				OFFSET 0.000000 -0.404085 0.000000 
				CHANNELS 3 Zrotation Xrotation Yrotation
				End Site
				{
					OFFSET 0.204105 -0.089430 -0.008415 
				}
			}
		}
	}
}
MOTION
Frames: 32
Frame Time: 0.02
0 0.95578 -0 183.55798 0 -2.7261 2.3801 2.00228 -0.49605 -25.97451 4.43268 0.47274 -22.57547 -71.48169 -81.96852 23.3295 71.89552 -15.12347 -1.39315 -10.11491 72.71434 65.69671 23.25075 -68.26434 -30.36609 2.06631 -3.80444 0.29171 6.01123 -6.49145 -2.1886 -3.71458 -6.93398 -1.68067 6.0955 0.85631 -7.24813 4.25711 2.25547 0.22651
-9e-05 0.95577 3e-05 183.5535 0 -2.72398 2.37801 2.0032 -0.50558 -26.01216 4.43603 0.46365 -22.44126 -71.47011 -81.8919 23.33748 71.91448 -15.13239 -1.40811 -9.99867 72.66714 65.65486 23.23911 -68.3007 -30.36032 2.06084 -3.81027 0.28878 6.02289 -6.48993 -2.18537 -3.71772 -6.94608 -1.6895 6.09301 0.87557 -7.24424 4.26247 2.25832 0.2127
-0.00019 0.95575 6e-05 183.549 0 -2.72188 2.37587 2.0041 -0.51506 -26.04957 4.43936 0.45462 -22.30793 -71.45851 -81.81576 23.3453 71.93334 -15.1411 -1.42292 -9.88322 72.62014 65.61303 23.2274 -68.33664 -30.35443 2.05542 -3.81607 0.28585 6.03427 -6.48845 -2.18211 -3.72082 -6.95786 -1.69831 6.09052 0.89462 -7.24035 4.26781 2.26121 0.19911
-0.00028 0.95574 9e-05 183.54447 0 -2.71979 2.37344 2.00494 -0.52447 -26.08608 4.44264 0.44573 -22.1773 -71.44668 -81.74093 23.35251 71.95193 -15.14907 -1.43726 -9.76999 72.5735 65.57084 23.21495 -68.37101 -30.34799 2.05026 -3.82167 0.28287 6.04417 -6.4872 -2.17865 -3.72379 -6.968 -1.70707 6.08802 0.91273 -7.2365 4.27315 2.26435 0.18643
-0.00038 0.95572 0.00012 183.54019 0 -2.71758 2.37246 2.00608 -0.53427 -26.127 4.44617 0.4361 -22.03293 -71.43601 -81.65933 23.36287 71.97188 -15.16094 -1.45407 -9.64521 72.52498 65.53054 23.206 -68.41337 -30.34444 2.04384 -3.82818 0.28015 6.06136 -6.48483 -2.17617 -3.72747 -6.98627 -1.71604 6.08559 0.93551 -7.23253 4.27849 2.26626 0.16912
-0.00047 0.95571 0.00015 183.53533 0 -2.71565 2.36844 2.0066 -0.54323 -26.15879 4.44917 0.42805 -21.91737 -71.42292 -81.59202 23.3666 71.98899 -15.16456 -1.46563 -9.54484 72.48044 65.48631 23.18991 -68.43904 -30.33481 2.04005 -3.83284 0.27691 6.06349 -6.48473 -2.17169 -3.72963 -6.98769 -1.7246 6.08302 0.94858 -7.22876 4.28383 2.27071 0.16149
-0.00053 0.9557 0.00017 183.52914 0 -2.71437 2.35531 2.00541 -0.5502 -26.1631 4.45093 0.4242 -21.88474 -71.40261 -81.56465 23.35102 71.99808 -15.14467 -1.46251 -9.51259 72.44633 65.42899 23.1508 -68.41549 -30.30734 2.04403 -3.83167 0.27187 6.01906 -6.49208 -2.16073 -3.72742 -6.93786 -1.73175 6.07983 0.93243 -7.22584 4.28942 2.28311 0.18256
-0.00059 0.95569 0.00018 183.52228 0 -2.71339 2.33921 2.0036 -0.55626 -26.15858 4.45214 0.42197 -21.88059 -71.37998 -81.55161 23.32891 72.00437 -15.11658 -1.45411 -9.50472 72.41628 65.36795 23.10499 -68.37563 -30.2739 2.05059 -3.82873 0.26636 5.96023 -6.50155 -2.1479 -3.7237 -6.87176 -1.73855 6.07654 0.90687 -7.2231 4.29499 2.29793 0.21309
-0.00065 0.95568 0.00019 183.51555 0 -2.71234 2.32491 2.00207 -0.56253 -26.15961 4.45347 0.41906 -21.86115 -71.35869 -81.53171 23.31042 72.01205 -15.09266 -1.44823 -9.48528 72.38467 65.31005 23.06441 -68.34525 -30.24389 2.05566 -3.82707 0.26129 5.91124 -6.50924 -2.13657 -3.7208 -6.81618 -1.74571 6.07344 0.88716 -7.22008 4.30038 2.31104 0.23799
-0.00071 0.95567 0.00021 183.50961 0 -2.71098 2.30872 2.00052 -0.56966 -26.15425 4.4553 0.41586 -21.85147 -71.33605 -81.5133 23.28919 72.01914 -15.0668 -1.44183 -9.46826 72.35187 65.24632 23.01482 -68.3062 -30.21093 2.06209 -3.82349 0.25527 5.8486 -6.52024 -2.12259 -3.71734 -6.7477 -1.75204 6.06969 0.86087 -7.21781 4.30651 2.32668 0.26838
-0.00078 0.95567 0.00022 183.50181 0 -2.71035 2.29575 1.99888 -0.57479 -26.15999 4.45602 0.4137 -21.82842 -71.31586 -81.49513 23.27209 72.02691 -15.04314 -1.43527 -9.45159 72.32248 65.19349 22.98215 -68.28125 -30.18261 2.06628 -3.82339 0.25111 5.81067 -6.52501 -2.11358 -3.71469 -6.70189 -1.76 6.06729 0.84596 -7.2141 4.31118 2.33767 0.28974
-0.00088 0.95567 0.00022 183.48944 0 -2.71156 2.29233 1.99712 -0.57469 -26.1994 4.45323 0.41369 -21.75969 -71.30132 -81.47449 23.26804 72.03621 -15.02673 -1.42959 -9.43339 72.30187 65.17483 23.00025 -68.30018 -30.16912 2.06398 -3.83416 0.25227 5.84707 -6.5107 -2.11947 -3.71468 -6.72554 -1.77276 6.06863 0.86564 -7.20588 4.31101 2.33474 0.28268
-0.001 0.95567 0.00023 183.47519 0 -2.71349 2.29225 1.99528 -0.57262 -26.25008 4.44944 0.41472 -21.67686 -71.28958 -81.4535 23.26832 72.04644 -15.01296 -1.42397 -9.41409 72.28447 65.16663 23.03521 -68.33373 -30.16038 2.05933 -3.84837 0.25533 5.90837 -6.49029 -2.13026 -3.71552 -6.77208 -1.78713 6.07133 0.8969 -7.19631 4.30951 2.32711 0.26643
-0.00111 0.95567 0.00023 183.4615 0 -2.71514 2.29068 1.9935 -0.5714 -26.29507 4.44652 0.41549 -21.60161 -71.2777 -81.43242 23.26657 72.05697 -14.9986 -1.41827 -9.393 72.26534 65.15161 23.06085 -68.35993 -30.14913 2.0555 -3.86045 0.25749 5.95657 -6.47361 -2.13831 -3.71594 -6.80621 -1.80066 6.07343 0.92231 -7.18772 4.30917 2.32195 0.25519
-0.00122 0.95567 0.00024 183.44887 0 -2.71665 2.28891 1.99165 -0.57027 -26.34231 4.4419 0.41544 -21.52233 -71.26116 -81.41294 23.26492 72.06451 -14.98149 -1.41245 -9.38234 72.24748 65.14533 23.09315 -68.38839 -30.13923 2.05266 -3.8748 0.25975 6.01175 -6.45302 -2.1485 -3.71645 -6.8481 -1.81469 6.07548 0.94996 -7.17764 4.30655 2.3155 0.24082
-0.00133 0.95567 0.00024 183.43378 0 -2.71858 2.28835 1.98988 -0.56858 -26.38744 4.44051 0.41727 -21.44781 -71.25478 -81.38981 23.26412 72.07834 -14.97072 -1.40713 -9.34949 72.22771 65.12319 23.11581 -68.41604 -30.12765 2.04734 -3.88535 0.26227 6.05854 -6.43902 -2.15541 -3.71702 -6.87967 -1.82802 6.07794 0.97571 -7.1703 4.3083 2.31055 0.23059
-0.00144 0.95566 0.00023 183.41063 0 -2.7217 2.29065 1.98864 -0.56517 -26.42589 4.44878 0.42469 -21.38896 -71.27776 -81.35698 23.26506 72.11095 -14.97782 -1.40193 -9.25455 72.20162 65.05642 23.10638 -68.4362 -30.11096 2.03439 -3.88382 0.26508 6.07585 -6.44554 -2.152 -3.71746 -6.87531 -1.83937 6.0813 0.99432 -7.17106 4.32299 2.31106 0.23476
-0.00155 0.95565 0.0002 183.38536 0 -2.72518 2.29399 1.98743 -0.56143 -26.46151 4.4602 0.4339 -21.33537 -71.31051 -81.32032 23.26666 72.14964 -14.99107 -1.39748 -9.13749 72.17352 64.97307 23.08692 -68.45543 -30.09237 2.01926 -3.87847 0.26808 6.08395 -6.45874 -2.14515 -3.71797 -6.86017 -1.84991 6.08501 1.01049 -7.1746 4.34201 2.31318 0.24324
-0.00167 0.95564 0.00018 183.36224 0 -2.72834 2.29666 1.98601 -0.55818 -26.49723 4.46986 0.44176 -21.27986 -71.33745 -81.2852 23.26771 72.18436 -15.00088 -1.39356 -9.03099 72.1465 64.89614 23.07301 -68.47624 -30.07418 2.00607 -3.87539 0.27096 6.09648 -6.46831 -2.13991 -3.71853 -6.85128 -1.86059 6.08848 1.02718 -7.17674 4.3587 2.31443 0.24921
-0.00178 0.95562 0.00017 183.33415 0 -2.73218 2.30031 1.98538 -0.55323 -26.5384 4.48097 0.45165 -21.22201 -71.37023 -81.2511 23.26998 72.22388 -15.0135 -1.38599 -8.92189 72.11893 64.82409 23.05562 -68.49264 -30.05791 1.98889 -3.87027 0.27404 6.10886 -6.48016 -2.13462 -3.7188 -6.83758 -1.87228 6.09235 1.04671 -7.17942 4.37692 2.31609 0.25712
-0.00189 0.95561 0.00014 183.31579 0 -2.73469 2.30209 1.98312 -0.55203 -26.56736 4.48968 0.45806 -21.17032 -71.39316 -81.21377 23.26978 72.25525 -15.02172 -1.38614 -8.81351 72.09192 64.73803 23.04272 -68.51784 -30.03737 1.97943 -3.86836 0.27673 6.11903 -6.48897 -2.12858 -3.71967 -6.83089 -1.88166 6.09545 1.05965 -7.18166 4.39294 2.31735 0.26222
-0.00198 0.95559 0.00012 183.32623 0 -2.73334 2.29865 1.97633 -0.55889 -26.56366 4.4923 0.45141 -21.13571 -71.38613 -81.17029 23.26306 72.2589 -15.01601 -1.40801 -8.70774 72.06749 64.6153 23.04605 -68.56746 -30.00343 1.99266 -3.87686 0.27826 6.12528 -6.48722 -2.12122 -3.72228 -6.84738 -1.88467 6.09628 1.05438 -7.18188 4.4022 2.31698 0.2578
-0.00206 0.95558 9e-05 183.34631 0 -2.73067 2.29323 1.96788 -0.56991 -26.54772 4.49221 0.44169 -21.10691 -71.36893 -81.12341 23.25377 72.25479 -15.00572 -1.4375 -8.60434 72.04353 64.47945 23.05396 -68.62602 -29.96563 2.01362 -3.8886 0.27939 6.12944 -6.48229 -2.11322 -3.72548 -6.8709 -1.88541 6.09633 1.0426 -7.1816 4.40904 2.31619 0.25056
-0.00215 0.95556 6e-05 183.36109 0 -2.72867 2.28854 1.96021 -0.58065 -26.53703 4.49244 0.43541 -21.07461 -71.35657 -81.07682 23.24531 72.25677 -14.99767 -1.46314 -8.50302 72.01905 64.3508 23.05871 -68.6803 -29.93091 2.03044 -3.89845 0.28071 6.13455 -6.47921 -2.10553 -3.72836 -6.89035 -1.88729 6.09677 1.03415 -7.18167 4.41673 2.31569 0.24511
-0.00223 0.95555 4e-05 183.37965 0 -2.72638 2.28455 1.95245 -0.58486 -26.52736 4.49639 0.42082 -21.04613 -71.3435 -81.03516 23.23819 72.2484 -14.9891 -1.4905 -8.38766 71.99596 64.21605 23.06741 -68.73499 -29.8905 2.04971 -3.9099 0.28202 6.13962 -6.47471 -2.09763 -3.73144 -6.91335 -1.88863 6.09712 1.0241 -7.18134 4.42559 2.31482 0.23768
-0.00232 0.95553 1e-05 183.39269 0 -2.72438 2.27867 1.94447 -0.60334 -26.51297 4.49218 0.42248 -21.01101 -71.32954 -80.98278 23.22782 72.25935 -14.98055 -1.516 -8.30233 71.96988 64.09148 23.06942 -68.79157 -29.8611 2.06592 -3.9189 0.28323 6.14407 -6.47226 -2.09007 -3.73425 -6.9305 -1.89062 6.09744 1.01583 -7.18164 4.43141 2.3146 0.23364
-0.00239 0.95553 -2e-05 183.3877 0 -2.72353 2.26752 1.93643 -0.663 -26.48597 4.46364 0.47247 -20.95614 -71.31408 -80.899 23.20777 72.32802 -14.97214 -1.5351 -8.30005 71.93759 63.99533 23.04925 -68.84586 -29.8625 2.0702 -3.91985 0.28447 6.1503 -6.47683 -2.08353 -3.73629 -6.93209 -1.89469 6.09796 1.01441 -7.18424 4.42903 2.31626 0.23972
-0.00246 0.95552 -6e-05 183.37692 0 -2.72303 2.25461 1.9282 -0.73638 -26.45512 4.42738 0.53842 -20.89439 -71.29828 -80.80511 23.18479 72.41592 -14.96408 -1.55196 -8.32788 71.90188 63.91059 23.02274 -68.90273 -29.87514 2.07142 -3.91833 0.28559 6.15557 -6.48344 -2.07739 -3.73804 -6.92727 -1.89956 6.09847 1.01498 -7.1874 4.42372 2.31858 0.24927
-0.00253 0.95551 -9e-05 183.36905 0 -2.72237 2.24283 1.91995 -0.80164 -26.42773 4.39628 0.5953 -20.83571 -71.28364 -80.71755 23.16403 72.49332 -14.95648 -1.56942 -8.34155 71.8663 63.82253 23.00083 -68.9619 -29.88313 2.07514 -3.91829 0.28661 6.15921 -6.48869 -2.07113 -3.73986 -6.92375 -1.90428 6.09894 1.01443 -7.18996 4.41997 2.32061 0.25719
-0.0026 0.9555 -0.00012 183.36029 0 -2.72166 2.22962 1.91208 -0.87496 -26.39269 4.35824 0.65973 -20.77733 -71.26455 -80.62239 23.13946 72.57776 -14.94604 -1.58883 -8.3573 71.8367 63.72583 22.97172 -69.00675 -29.88942 2.07455 -3.91687 0.28823 6.17103 -6.49564 -2.06459 -3.74193 -6.92678 -1.90807 6.09954 1.01452 -7.19392 4.41517 2.32261 0.26533
-0.00268 0.9555 -0.00015 183.35195 0 -2.72114 2.21898 1.9034 -0.93475 -26.37284 4.33272 0.7123 -20.71679 -71.25462 -80.54089 23.12215 72.65236 -14.94175 -1.60367 -8.37585 71.79388 63.65037 22.95619 -69.08187 -29.9015 2.082 -3.9177 0.28862 6.16621 -6.4996 -2.05873 -3.74342 -6.91517 -1.91396 6.09989 1.01387 -7.19517 4.4119 2.3248 0.27378
-0.00279 0.95549 -0.00015 183.34561 0 -2.72105 2.21593 1.89256 -0.95319 -26.39577 4.34479 0.72789 -20.6505 -71.27144 -80.49782 23.12583 72.69384 -14.95358 -1.60525 -8.395 71.71477 63.62829 22.9787 -69.24063 -29.93115 2.1135 -3.92533 0.28533 6.11026 -6.49452 -2.0548 -3.74338 -6.85933 -1.92589 6.09948 1.01036 -7.1882 4.41342 2.32763 0.28311
